<svg xmlns="http://www.w3.org/2000/svg" width="48" height="48" viewBox="0 0 16 16" shape-rendering="crispEdges"><rect x="6" y="2" width="4" height="4" fill="#e9d5ff"/><rect x="2" y="6" width="12" height="4" fill="#e9d5ff"/><rect x="6" y="10" width="4" height="4" fill="#e9d5ff"/><rect x="6" y="2" width="4" height="1" fill="#0f172a"/><rect x="6" y="13" width="4" height="1" fill="#0f172a"/><rect x="2" y="6" width="1" height="4" fill="#0f172a"/><rect x="13" y="6" width="1" height="4" fill="#0f172a"/><rect x="6" y="3" width="1" height="3" fill="#0f172a"/><rect x="9" y="3" width="1" height="3" fill="#0f172a"/><rect x="6" y="10" width="1" height="3" fill="#0f172a"/><rect x="9" y="10" width="1" height="3" fill="#0f172a"/><rect x="3" y="6" width="3" height="1" fill="#0f172a"/><rect x="3" y="9" width="3" height="1" fill="#0f172a"/><rect x="10" y="6" width="3" height="1" fill="#0f172a"/><rect x="10" y="9" width="3" height="1" fill="#0f172a"/></svg>
